<mxfile host="app.diagrams.net" modified="2022-04-04T04:39:15.194Z" agent="5.0 (Windows NT 10.0; Win64; x64) AppleWebKit/537.36 (KHTML, like Gecko) Chrome/100.0.4896.60 Safari/537.36 Edg/100.0.1185.29" etag="L4FAmnhmW_QrlhXqtiI5" version="17.4.0" type="github">
  <diagram id="kyjJDz9pvV0HbniqMfuo" name="Page-1">
    <mxGraphModel dx="860" dy="488" grid="1" gridSize="10" guides="1" tooltips="1" connect="1" arrows="1" fold="1" page="1" pageScale="1" pageWidth="827" pageHeight="1169" math="0" shadow="0">
      <root>
        <mxCell id="0" />
        <mxCell id="1" parent="0" />
        <mxCell id="hlviZTT8n_zYaPw92O7Q-18" value="" style="edgeStyle=orthogonalEdgeStyle;rounded=0;orthogonalLoop=1;jettySize=auto;html=1;" edge="1" parent="1" source="hlviZTT8n_zYaPw92O7Q-1" target="hlviZTT8n_zYaPw92O7Q-2">
          <mxGeometry relative="1" as="geometry" />
        </mxCell>
        <mxCell id="hlviZTT8n_zYaPw92O7Q-1" value="获取弓网视频" style="rounded=0;whiteSpace=wrap;html=1;fillColor=#dae8fc;strokeColor=#6c8ebf;" vertex="1" parent="1">
          <mxGeometry x="40" y="110" width="120" height="60" as="geometry" />
        </mxCell>
        <mxCell id="hlviZTT8n_zYaPw92O7Q-19" value="" style="edgeStyle=orthogonalEdgeStyle;rounded=0;orthogonalLoop=1;jettySize=auto;html=1;" edge="1" parent="1" source="hlviZTT8n_zYaPw92O7Q-2" target="hlviZTT8n_zYaPw92O7Q-3">
          <mxGeometry relative="1" as="geometry" />
        </mxCell>
        <mxCell id="hlviZTT8n_zYaPw92O7Q-22" value="" style="edgeStyle=orthogonalEdgeStyle;rounded=0;orthogonalLoop=1;jettySize=auto;html=1;" edge="1" parent="1" source="hlviZTT8n_zYaPw92O7Q-2" target="hlviZTT8n_zYaPw92O7Q-5">
          <mxGeometry relative="1" as="geometry" />
        </mxCell>
        <mxCell id="hlviZTT8n_zYaPw92O7Q-2" value="数据预处理" style="rounded=0;whiteSpace=wrap;html=1;fillColor=#d5e8d4;strokeColor=#82b366;" vertex="1" parent="1">
          <mxGeometry x="200" y="110" width="120" height="60" as="geometry" />
        </mxCell>
        <mxCell id="hlviZTT8n_zYaPw92O7Q-20" value="" style="edgeStyle=orthogonalEdgeStyle;rounded=0;orthogonalLoop=1;jettySize=auto;html=1;" edge="1" parent="1" source="hlviZTT8n_zYaPw92O7Q-3" target="hlviZTT8n_zYaPw92O7Q-4">
          <mxGeometry relative="1" as="geometry" />
        </mxCell>
        <mxCell id="hlviZTT8n_zYaPw92O7Q-25" value="" style="edgeStyle=orthogonalEdgeStyle;rounded=0;orthogonalLoop=1;jettySize=auto;html=1;" edge="1" parent="1" source="hlviZTT8n_zYaPw92O7Q-3" target="hlviZTT8n_zYaPw92O7Q-7">
          <mxGeometry relative="1" as="geometry" />
        </mxCell>
        <mxCell id="hlviZTT8n_zYaPw92O7Q-3" value="弓网燃弧故障识别" style="rounded=0;whiteSpace=wrap;html=1;fillColor=#fff2cc;strokeColor=#d6b656;" vertex="1" parent="1">
          <mxGeometry x="360" y="110" width="120" height="60" as="geometry" />
        </mxCell>
        <mxCell id="hlviZTT8n_zYaPw92O7Q-28" style="edgeStyle=orthogonalEdgeStyle;rounded=0;orthogonalLoop=1;jettySize=auto;html=1;entryX=0.5;entryY=0;entryDx=0;entryDy=0;" edge="1" parent="1" source="hlviZTT8n_zYaPw92O7Q-4" target="hlviZTT8n_zYaPw92O7Q-11">
          <mxGeometry relative="1" as="geometry" />
        </mxCell>
        <mxCell id="hlviZTT8n_zYaPw92O7Q-29" style="edgeStyle=orthogonalEdgeStyle;rounded=0;orthogonalLoop=1;jettySize=auto;html=1;" edge="1" parent="1" source="hlviZTT8n_zYaPw92O7Q-4" target="hlviZTT8n_zYaPw92O7Q-12">
          <mxGeometry relative="1" as="geometry" />
        </mxCell>
        <mxCell id="hlviZTT8n_zYaPw92O7Q-4" value="搭建弓网燃弧识别&lt;br&gt;系统" style="rounded=0;whiteSpace=wrap;html=1;fillColor=#f8cecc;strokeColor=#b85450;" vertex="1" parent="1">
          <mxGeometry x="660" y="110" width="120" height="60" as="geometry" />
        </mxCell>
        <mxCell id="hlviZTT8n_zYaPw92O7Q-23" value="" style="edgeStyle=orthogonalEdgeStyle;rounded=0;orthogonalLoop=1;jettySize=auto;html=1;" edge="1" parent="1" source="hlviZTT8n_zYaPw92O7Q-5" target="hlviZTT8n_zYaPw92O7Q-6">
          <mxGeometry relative="1" as="geometry" />
        </mxCell>
        <mxCell id="hlviZTT8n_zYaPw92O7Q-5" value="截取带火花的帧" style="rounded=0;whiteSpace=wrap;html=1;fillColor=#d5e8d4;strokeColor=#82b366;" vertex="1" parent="1">
          <mxGeometry x="200" y="220" width="120" height="60" as="geometry" />
        </mxCell>
        <mxCell id="hlviZTT8n_zYaPw92O7Q-24" value="" style="edgeStyle=orthogonalEdgeStyle;rounded=0;orthogonalLoop=1;jettySize=auto;html=1;" edge="1" parent="1" source="hlviZTT8n_zYaPw92O7Q-6" target="hlviZTT8n_zYaPw92O7Q-9">
          <mxGeometry relative="1" as="geometry" />
        </mxCell>
        <mxCell id="hlviZTT8n_zYaPw92O7Q-6" value="分两大类，&lt;br&gt;每类八场景" style="rounded=0;whiteSpace=wrap;html=1;fillColor=#d5e8d4;strokeColor=#82b366;" vertex="1" parent="1">
          <mxGeometry x="200" y="330" width="120" height="60" as="geometry" />
        </mxCell>
        <mxCell id="hlviZTT8n_zYaPw92O7Q-26" value="" style="edgeStyle=orthogonalEdgeStyle;rounded=0;orthogonalLoop=1;jettySize=auto;html=1;" edge="1" parent="1" source="hlviZTT8n_zYaPw92O7Q-7" target="hlviZTT8n_zYaPw92O7Q-8">
          <mxGeometry relative="1" as="geometry" />
        </mxCell>
        <mxCell id="hlviZTT8n_zYaPw92O7Q-7" value="YOLOv3" style="rounded=0;whiteSpace=wrap;html=1;fillColor=#fff2cc;strokeColor=#d6b656;" vertex="1" parent="1">
          <mxGeometry x="360" y="220" width="120" height="60" as="geometry" />
        </mxCell>
        <mxCell id="hlviZTT8n_zYaPw92O7Q-27" value="" style="edgeStyle=orthogonalEdgeStyle;rounded=0;orthogonalLoop=1;jettySize=auto;html=1;" edge="1" parent="1" source="hlviZTT8n_zYaPw92O7Q-8" target="hlviZTT8n_zYaPw92O7Q-10">
          <mxGeometry relative="1" as="geometry" />
        </mxCell>
        <mxCell id="hlviZTT8n_zYaPw92O7Q-8" value="&lt;span&gt;YOLOv4&lt;/span&gt;" style="rounded=0;whiteSpace=wrap;html=1;fillColor=#fff2cc;strokeColor=#d6b656;" vertex="1" parent="1">
          <mxGeometry x="360" y="330" width="120" height="60" as="geometry" />
        </mxCell>
        <mxCell id="hlviZTT8n_zYaPw92O7Q-9" value="进行图像边界标记" style="rounded=0;whiteSpace=wrap;html=1;fillColor=#d5e8d4;strokeColor=#82b366;" vertex="1" parent="1">
          <mxGeometry x="200" y="440" width="120" height="60" as="geometry" />
        </mxCell>
        <mxCell id="hlviZTT8n_zYaPw92O7Q-10" value="&lt;span&gt;YOLOv5&lt;/span&gt;" style="rounded=0;whiteSpace=wrap;html=1;fillColor=#fff2cc;strokeColor=#d6b656;" vertex="1" parent="1">
          <mxGeometry x="360" y="440" width="120" height="60" as="geometry" />
        </mxCell>
        <mxCell id="hlviZTT8n_zYaPw92O7Q-30" value="" style="edgeStyle=orthogonalEdgeStyle;rounded=0;orthogonalLoop=1;jettySize=auto;html=1;" edge="1" parent="1" source="hlviZTT8n_zYaPw92O7Q-11" target="hlviZTT8n_zYaPw92O7Q-13">
          <mxGeometry relative="1" as="geometry" />
        </mxCell>
        <mxCell id="hlviZTT8n_zYaPw92O7Q-11" value="前端" style="rounded=0;whiteSpace=wrap;html=1;fillColor=#f8cecc;strokeColor=#b85450;" vertex="1" parent="1">
          <mxGeometry x="570" y="220" width="120" height="60" as="geometry" />
        </mxCell>
        <mxCell id="hlviZTT8n_zYaPw92O7Q-31" value="" style="edgeStyle=orthogonalEdgeStyle;rounded=0;orthogonalLoop=1;jettySize=auto;html=1;" edge="1" parent="1" source="hlviZTT8n_zYaPw92O7Q-12" target="hlviZTT8n_zYaPw92O7Q-14">
          <mxGeometry relative="1" as="geometry" />
        </mxCell>
        <mxCell id="hlviZTT8n_zYaPw92O7Q-12" value="后端" style="rounded=0;whiteSpace=wrap;html=1;fillColor=#e1d5e7;strokeColor=#9673a6;" vertex="1" parent="1">
          <mxGeometry x="730" y="220" width="120" height="60" as="geometry" />
        </mxCell>
        <mxCell id="hlviZTT8n_zYaPw92O7Q-32" value="" style="edgeStyle=orthogonalEdgeStyle;rounded=0;orthogonalLoop=1;jettySize=auto;html=1;" edge="1" parent="1" source="hlviZTT8n_zYaPw92O7Q-13" target="hlviZTT8n_zYaPw92O7Q-15">
          <mxGeometry relative="1" as="geometry" />
        </mxCell>
        <mxCell id="hlviZTT8n_zYaPw92O7Q-13" value="视图层" style="rounded=0;whiteSpace=wrap;html=1;fillColor=#f8cecc;strokeColor=#b85450;" vertex="1" parent="1">
          <mxGeometry x="570" y="330" width="120" height="60" as="geometry" />
        </mxCell>
        <mxCell id="hlviZTT8n_zYaPw92O7Q-33" value="" style="edgeStyle=orthogonalEdgeStyle;rounded=0;orthogonalLoop=1;jettySize=auto;html=1;" edge="1" parent="1" source="hlviZTT8n_zYaPw92O7Q-14" target="hlviZTT8n_zYaPw92O7Q-16">
          <mxGeometry relative="1" as="geometry" />
        </mxCell>
        <mxCell id="hlviZTT8n_zYaPw92O7Q-14" value="后端控制层" style="rounded=0;whiteSpace=wrap;html=1;fillColor=#e1d5e7;strokeColor=#9673a6;" vertex="1" parent="1">
          <mxGeometry x="730" y="330" width="120" height="60" as="geometry" />
        </mxCell>
        <mxCell id="hlviZTT8n_zYaPw92O7Q-15" value="前端控制层" style="rounded=0;whiteSpace=wrap;html=1;fillColor=#f8cecc;strokeColor=#b85450;" vertex="1" parent="1">
          <mxGeometry x="570" y="440" width="120" height="60" as="geometry" />
        </mxCell>
        <mxCell id="hlviZTT8n_zYaPw92O7Q-34" value="" style="edgeStyle=orthogonalEdgeStyle;rounded=0;orthogonalLoop=1;jettySize=auto;html=1;" edge="1" parent="1" source="hlviZTT8n_zYaPw92O7Q-16" target="hlviZTT8n_zYaPw92O7Q-17">
          <mxGeometry relative="1" as="geometry" />
        </mxCell>
        <mxCell id="hlviZTT8n_zYaPw92O7Q-16" value="后端服务层" style="rounded=0;whiteSpace=wrap;html=1;fillColor=#e1d5e7;strokeColor=#9673a6;" vertex="1" parent="1">
          <mxGeometry x="730" y="440" width="120" height="60" as="geometry" />
        </mxCell>
        <mxCell id="hlviZTT8n_zYaPw92O7Q-17" value="数据访问层" style="rounded=0;whiteSpace=wrap;html=1;fillColor=#e1d5e7;strokeColor=#9673a6;" vertex="1" parent="1">
          <mxGeometry x="730" y="555" width="120" height="60" as="geometry" />
        </mxCell>
      </root>
    </mxGraphModel>
  </diagram>
</mxfile>
